<?xml version="1.0" encoding="UTF-8"?>
<svg id="Livello_1" data-name="Livello 1" xmlns="http://www.w3.org/2000/svg" viewBox="0 0 710.07 684.2">
  <defs>
    <style>
      .cls-1, .cls-2 {
        fill: #3f2a1c;
      }

      .cls-2 {
        fill-rule: evenodd;
      }
    </style>
  </defs>
  <g>
    <path class="cls-1" d="M260.51,340.4c-3.33,3.33-6.67,6.67-10,10,3.71,10.61,27.61,75.56,97.05,104.15,53.42,21.99,101.08,9,112.46,5.59,55.69-16.72,84.34-56.83,91.86-68.14-2.98-4.87-5.96-9.73-8.94-14.6l32.58-33.48,15.86-1.64,15.14-43.35c34.52-8.83,69.03-17.66,103.55-26.5-1.53,36.4-3.06,72.8-4.59,109.2-13.76,4.39-27.52,8.79-41.27,13.18,3.26,3.51,6.53,7.01,9.79,10.52-15.41,16.35-30.82,32.69-46.24,49.04-5.51-2.48-11.02-4.97-16.53-7.45-9.04,24.67-37.25,91.55-108.84,140.87-61.29,42.22-122.26,49.45-149.17,51.02-1.38,15.13-2.77,30.26-4.15,45.39-40.49-8.95-80.99-17.89-121.48-26.84,2.66-5.39,5.32-10.78,7.98-16.17-27.13-9.11-93.67-35.51-147.2-103.37C27.31,460.4,21.68,377.81,20.98,350.3c-6.83-3.3-13.66-6.61-20.49-9.91-.16-23.33-.33-46.66-.49-69.99h260.49v70h.02ZM693.18,290.41c-25.18,6.29-50.35,12.59-75.53,18.88-1.6,13.79-3.21,27.57-4.81,41.36,14.33,11.93,28.65,23.85,42.98,35.78,8.3-3.75,16.61-7.5,24.91-11.25-10.4-10.92-20.8-21.85-31.21-32.77,13.75,8.11,27.5,16.22,41.25,24.34.8-25.44,1.61-50.89,2.41-76.33h0ZM160.51,300.4H20.51v20h140v-20ZM160.35,350.4H50.35c-.5,16.06.33,36.62,5.02,59.95,4.18,20.82,10.33,38.31,16.21,52,35.11-22.42,70.22-44.84,105.32-67.26-3.5-6.84-7.06-14.75-10.28-23.69-2.69-7.48-4.73-14.54-6.29-21h.02ZM89.78,493.9c41.91-32.95,83.83-65.9,125.74-98.85-1.23-3.46-2.47-6.92-3.7-10.38-44.95,28.71-89.9,57.41-134.85,86.12,2.78,5.42,5.77,10.96,8.98,16.57,1.27,2.22,2.55,4.4,3.83,6.54h0ZM501.44,472.84c10.78,18.05,21.56,36.1,32.35,54.15,12.32-13.06,26.85-31.2,39.51-54.93,7.53-14.12,12.94-27.48,16.87-39.27-7.65-6.33-15.3-12.67-22.96-19-7.62,10.47-18.22,23.02-32.53,35.43-11.86,10.28-23.37,17.95-33.24,23.62ZM282.79,505.66c5.3-11.24,10.59-22.48,15.89-33.72-7.58-4.43-15.94-9.91-24.62-16.7-9.82-7.67-17.96-15.38-24.59-22.4-6.15,6.95-12.29,13.91-18.44,20.86,7.59,9.77,16.82,20.41,27.94,31.19,8.19,7.95,16.23,14.83,23.82,20.77h0ZM274.93,523.05c-11.36-8.84-23.83-19.76-36.45-33.09-16.97-17.93-29.78-35.55-39.32-50.76-29.67,27.81-59.34,55.62-89.01,83.43,11.28,13.94,26.55,30.23,46.61,46.05,28.72,22.65,56.73,36.02,77.66,44.01,13.5-29.88,27-59.76,40.51-89.65h0ZM365.37,612.04c21.92-2.23,56.17-8.51,93.24-27.95,27.51-14.42,47.66-31.41,61.2-44.81-10-20.12-19.99-40.25-29.99-60.37-13.87,6.66-34.46,14.65-60.48,18.33-23.39,3.31-43.38,2.03-57.77,0-2.07,38.27-4.14,76.54-6.21,114.81h.01ZM350.15,492.91c-5.44-1.49-11.18-3.26-17.17-5.36-5.51-1.93-10.68-3.96-15.49-6-16.67,48.23-33.34,96.46-50.01,144.68,6.51-3.63,13.03-7.26,19.54-10.89,14.8,2.64,29.59,5.28,44.39,7.92,6.24-43.45,12.49-86.9,18.73-130.35h.01Z"/>
    <path class="cls-1" d="M222.5,553.4l-45.98-11.51c-6.09-11.31-9.13-24.05-12.01-36.48l23.01,30.48,34.98,17.51Z"/>
    <path class="cls-1" d="M237.5,561.4l-7.85-13.64c-3.01-4.83-4.42-15.28-7.69-19.31-3.17-3.89-13.83-7.71-18.11-11.39-3.62-3.11-10.54-12.51-13.74-16.76-.76-1.01-4.34-5.09-3.59-5.9,6.63,4.1,13.29,8.23,19.46,13.03,4.62,3.59,18.21,14.79,20.98,19.02,5.53,8.43,7.66,25.08,10.53,34.95h.01Z"/>
    <path class="cls-1" d="M425.52,513.4l-14.58,39.94-16.44,13.05c16.66-15.36,17.71-38.9,28.98-57.57l35.39,12.38,21.14-20.8c.75-.16.65.97.48,1.48-.93,2.88-7.95,12.72-10.17,15.83-1.21,1.7-6.26,9.27-7.44,9.5l-37.36-13.82h0Z"/>
    <path class="cls-1" d="M91.51,421.4c11.87-16.86,21.87-35.69,37.99-48.99-4.75,12.88-12.6,24.22-19.56,35.93l-18.43,13.06h0Z"/>
    <path class="cls-1" d="M91.51,375.4c.2,10.33-1.33,20.81-3.69,30.82-.38,1.6-.71,5.65-2.31,6.18l-4.02-37h10.02Z"/>
    <polygon class="cls-1" points="313.51 548.4 323.35 550.87 315.05 586.18 304.7 582.95 313.51 548.4"/>
    <path class="cls-1" d="M539.51,456.41l25-11.99c-5.07,7.15-12.98,11.28-19,17.49l-6,13.5v-19Z"/>
  </g>
  <path class="cls-2" d="M386.05,147.72c5.39-3.56,11.63-6.01,18.45-7l79.68-11.58-79.68-11.59c-6.83-.99-13.06-3.44-18.45-7,5.65-8.69,14.39-20.44,26.28-38.71-18.27,11.9-30.01,20.64-38.7,26.29-3.55-5.39-6-11.62-6.99-18.44L355.05,0l-11.59,79.69c-.99,6.83-3.44,13.06-7,18.45-8.69-5.65-20.44-14.4-38.72-26.3,11.9,18.27,20.65,30.02,26.3,38.72-5.39,3.56-11.62,6.01-18.45,7l-79.69,11.59,79.69,11.58c6.83.99,13.06,3.44,18.45,7-5.65,8.69-14.4,20.44-26.3,38.71,18.28-11.9,30.03-20.64,38.72-26.29,3.56,5.39,6.01,11.63,7,18.45l11.59,79.69,11.59-79.69c.99-6.82,3.44-13.06,6.99-18.44,8.69,5.65,20.44,14.39,38.7,26.29-11.89-18.27-20.63-30.02-26.28-38.71v-.02Z"/>
</svg>